<mxfile host="app.diagrams.net" modified="2023-11-28T03:30:41.618Z" agent="Mozilla/5.0 (Windows NT 10.0; Win64; x64) AppleWebKit/537.36 (KHTML, like Gecko) Chrome/119.0.0.0 Safari/537.36" etag="58HWOovSpvufcwsdb7_S" version="22.1.4" type="github">
  <diagram name="第 1 页" id="Bz7HMWfo7BPF0edmAM4z">
    <mxGraphModel dx="1195" dy="625" grid="1" gridSize="10" guides="1" tooltips="1" connect="1" arrows="1" fold="1" page="1" pageScale="1" pageWidth="827" pageHeight="1169" math="0" shadow="0">
      <root>
        <mxCell id="0" />
        <mxCell id="1" parent="0" />
        <mxCell id="VWTRXh17PuX6DymBPsvB-16" value="" style="rounded=1;whiteSpace=wrap;html=1;fontSize=14;" vertex="1" parent="1">
          <mxGeometry x="400" y="220" width="130" height="170" as="geometry" />
        </mxCell>
        <mxCell id="VWTRXh17PuX6DymBPsvB-14" value="" style="rounded=1;whiteSpace=wrap;html=1;fontSize=14;" vertex="1" parent="1">
          <mxGeometry x="560" y="220" width="130" height="160" as="geometry" />
        </mxCell>
        <mxCell id="VWTRXh17PuX6DymBPsvB-1" value="" style="endArrow=none;html=1;rounded=0;fontSize=14;" edge="1" parent="1">
          <mxGeometry width="50" height="50" relative="1" as="geometry">
            <mxPoint x="360" y="490" as="sourcePoint" />
            <mxPoint x="710" y="490" as="targetPoint" />
          </mxGeometry>
        </mxCell>
        <mxCell id="VWTRXh17PuX6DymBPsvB-2" value="" style="endArrow=none;html=1;rounded=0;fontSize=14;" edge="1" parent="1">
          <mxGeometry width="50" height="50" relative="1" as="geometry">
            <mxPoint x="540" y="170" as="sourcePoint" />
            <mxPoint x="540" y="490" as="targetPoint" />
          </mxGeometry>
        </mxCell>
        <mxCell id="VWTRXh17PuX6DymBPsvB-5" value="普通高中" style="rounded=1;whiteSpace=wrap;html=1;fontSize=14;" vertex="1" parent="1">
          <mxGeometry x="565" y="400" width="120" height="60" as="geometry" />
        </mxCell>
        <mxCell id="VWTRXh17PuX6DymBPsvB-6" value="普通教育" style="text;html=1;strokeColor=none;fillColor=none;align=center;verticalAlign=middle;whiteSpace=wrap;rounded=0;fontSize=21;" vertex="1" parent="1">
          <mxGeometry x="595" y="170" width="60" height="30" as="geometry" />
        </mxCell>
        <mxCell id="VWTRXh17PuX6DymBPsvB-7" value="职业教育" style="text;html=1;strokeColor=none;fillColor=none;align=center;verticalAlign=middle;whiteSpace=wrap;rounded=0;fontSize=21;" vertex="1" parent="1">
          <mxGeometry x="435" y="170" width="60" height="30" as="geometry" />
        </mxCell>
        <mxCell id="VWTRXh17PuX6DymBPsvB-8" value="" style="rounded=1;whiteSpace=wrap;html=1;fontSize=14;" vertex="1" parent="1">
          <mxGeometry x="403" y="396" width="125" height="80" as="geometry" />
        </mxCell>
        <mxCell id="VWTRXh17PuX6DymBPsvB-9" value="" style="rounded=1;whiteSpace=wrap;html=1;fontSize=14;" vertex="1" parent="1">
          <mxGeometry x="405" y="295" width="120" height="90" as="geometry" />
        </mxCell>
        <mxCell id="VWTRXh17PuX6DymBPsvB-11" value="职业本科（新）（四年）" style="rounded=1;whiteSpace=wrap;html=1;fontSize=14;" vertex="1" parent="1">
          <mxGeometry x="405" y="230" width="120" height="60" as="geometry" />
        </mxCell>
        <mxCell id="VWTRXh17PuX6DymBPsvB-13" value="研究型本科（一本）" style="rounded=1;whiteSpace=wrap;html=1;fontSize=14;" vertex="1" parent="1">
          <mxGeometry x="565" y="245" width="120" height="60" as="geometry" />
        </mxCell>
        <mxCell id="VWTRXh17PuX6DymBPsvB-12" value="应用型本科（二三本）" style="rounded=1;whiteSpace=wrap;html=1;fontSize=14;" vertex="1" parent="1">
          <mxGeometry x="565" y="306" width="120" height="60" as="geometry" />
        </mxCell>
        <mxCell id="VWTRXh17PuX6DymBPsvB-17" value="高等职业学校" style="rounded=1;whiteSpace=wrap;html=1;fontSize=14;" vertex="1" parent="1">
          <mxGeometry x="410" y="320" width="110" height="30" as="geometry" />
        </mxCell>
        <mxCell id="VWTRXh17PuX6DymBPsvB-18" value="高等专科学校" style="rounded=1;whiteSpace=wrap;html=1;fontSize=14;" vertex="1" parent="1">
          <mxGeometry x="410" y="350" width="110" height="30" as="geometry" />
        </mxCell>
        <mxCell id="VWTRXh17PuX6DymBPsvB-19" value="大学专科（三年）" style="text;html=1;strokeColor=none;fillColor=none;align=center;verticalAlign=middle;whiteSpace=wrap;rounded=0;" vertex="1" parent="1">
          <mxGeometry x="410" y="290" width="100" height="30" as="geometry" />
        </mxCell>
        <mxCell id="VWTRXh17PuX6DymBPsvB-23" style="rounded=0;orthogonalLoop=1;jettySize=auto;html=1;exitX=0.5;exitY=0;exitDx=0;exitDy=0;entryX=0;entryY=0.5;entryDx=0;entryDy=0;" edge="1" parent="1" source="VWTRXh17PuX6DymBPsvB-22" target="VWTRXh17PuX6DymBPsvB-18">
          <mxGeometry relative="1" as="geometry" />
        </mxCell>
        <mxCell id="VWTRXh17PuX6DymBPsvB-22" value="办学历史悠久，可升本科&lt;br&gt;第四批次" style="text;html=1;strokeColor=none;fillColor=none;align=center;verticalAlign=middle;whiteSpace=wrap;rounded=0;" vertex="1" parent="1">
          <mxGeometry x="210" y="420" width="150" height="19" as="geometry" />
        </mxCell>
        <mxCell id="VWTRXh17PuX6DymBPsvB-25" value="大学本科（四年）" style="text;html=1;strokeColor=none;fillColor=none;align=center;verticalAlign=middle;whiteSpace=wrap;rounded=0;" vertex="1" parent="1">
          <mxGeometry x="575" y="220" width="100" height="30" as="geometry" />
        </mxCell>
        <mxCell id="VWTRXh17PuX6DymBPsvB-27" style="rounded=0;orthogonalLoop=1;jettySize=auto;html=1;exitX=1;exitY=0.25;exitDx=0;exitDy=0;" edge="1" parent="1" source="VWTRXh17PuX6DymBPsvB-26" target="VWTRXh17PuX6DymBPsvB-17">
          <mxGeometry relative="1" as="geometry" />
        </mxCell>
        <mxCell id="VWTRXh17PuX6DymBPsvB-26" value="第五批次" style="text;html=1;strokeColor=none;fillColor=none;align=center;verticalAlign=middle;whiteSpace=wrap;rounded=0;" vertex="1" parent="1">
          <mxGeometry x="260" y="331" width="70" height="19" as="geometry" />
        </mxCell>
        <mxCell id="VWTRXh17PuX6DymBPsvB-28" value="中专" style="rounded=1;whiteSpace=wrap;html=1;fontSize=14;" vertex="1" parent="1">
          <mxGeometry x="408.5" y="410" width="110" height="30" as="geometry" />
        </mxCell>
        <mxCell id="VWTRXh17PuX6DymBPsvB-29" value="职高" style="rounded=1;whiteSpace=wrap;html=1;fontSize=14;" vertex="1" parent="1">
          <mxGeometry x="408.5" y="440" width="110" height="30" as="geometry" />
        </mxCell>
        <mxCell id="VWTRXh17PuX6DymBPsvB-31" value="中专" style="text;html=1;strokeColor=none;fillColor=none;align=center;verticalAlign=middle;whiteSpace=wrap;rounded=0;" vertex="1" parent="1">
          <mxGeometry x="413.5" y="390" width="100" height="30" as="geometry" />
        </mxCell>
      </root>
    </mxGraphModel>
  </diagram>
</mxfile>
